<?xml version="1.0" encoding="UTF-8"?>
<svg version="1.1" xmlns="http://www.w3.org/2000/svg" width="1080" height="1080">
<path d="M0,0 L1080,0 L1080,1080 L0,1080 Z " fill="#000000" transform="translate(0,0)"/>
<path d="M0,0 L476,0 L486,2 L498,8 L507,16 L514,27 L517,35 L518,41 L518,706 L516,715 L510,727 L502,736 L491,743 L401,788 L386,795 L376,797 L-100,797 L-110,795 L-122,789 L-132,780 L-137,773 L-141,763 L-142,757 L-142,90 L-140,82 L-136,73 L-129,64 L-121,57 L-105,49 L-15,4 L-8,1 Z " fill="#FEFEFE" transform="translate(364,107)"/>
<path d="M0,0 L81,0 L81,9 L71,14 L161,15 L159,25 L155,41 L167,35 L261,35 L258,47 L251,69 L243,100 L237,132 L233,166 L232,182 L232,239 L234,265 L237,288 L237,292 L354,292 L354,386 L352,387 L394,388 L394,481 L426,465 L427,465 L427,602 L108,602 L92,599 L82,594 L74,588 L67,579 L62,565 L61,558 L61,513 L334,512 L334,418 L78,418 L71,373 L67,328 L66,300 L66,258 L67,229 L71,185 L79,134 L89,88 L101,45 L7,45 L3,61 L-6,95 L-16,143 L-22,183 L-26,226 L-27,249 L-27,308 L-26,331 L-22,375 L-14,426 L-5,468 L1,489 L2,588 L5,602 L9,610 L15,618 L25,625 L35,629 L48,631 L417,632 L414,637 L406,644 L396,649 L380,652 L8,652 L-8,649 L-18,644 L-26,638 L-33,629 L-38,615 L-39,608 L-39,43 L-36,29 L-32,21 L-25,12 L-15,5 L-6,1 Z " fill="#48E238" transform="translate(308,205)"/>
<path d="M0,0 L476,0 L486,2 L498,8 L507,16 L514,27 L517,35 L518,41 L518,706 L516,715 L510,727 L502,736 L491,743 L401,788 L399,787 L406,781 L413,770 L416,762 L417,756 L417,91 L415,82 L409,70 L402,62 L391,55 L383,52 L376,51 L-107,51 L-103,48 L-15,4 L-8,1 Z " fill="#F9D019" transform="translate(364,107)"/>
<path d="M0,0 L94,0 L92,10 L81,51 L71,100 L65,140 L61,184 L60,213 L60,255 L61,283 L65,328 L71,368 L71,373 L327,373 L327,467 L323,468 L1,468 L-1,466 L-13,423 L-23,376 L-30,330 L-34,286 L-35,263 L-35,204 L-34,181 L-30,138 L-22,87 L-13,45 L-1,2 Z " fill="#FEFEFE" transform="translate(315,250)"/>
<path d="M0,0 L94,0 L91,12 L84,34 L76,65 L70,97 L66,131 L65,147 L65,204 L67,230 L70,253 L70,257 L187,257 L187,351 L0,351 L-3,344 L-9,343 L-16,299 L-21,277 L-25,256 L-29,224 L-31,192 L-31,158 L-29,127 L-24,90 L-18,60 L-10,29 L-1,1 Z " fill="#FEFEFE" transform="translate(455,250)"/>
<path d="M0,0 L476,0 L486,2 L498,8 L507,16 L514,27 L517,35 L518,41 L518,706 L516,715 L510,727 L502,736 L491,743 L461,758 L459,757 L466,751 L473,740 L476,732 L477,726 L477,61 L475,52 L469,40 L462,32 L451,25 L443,22 L436,21 L-47,21 L-43,18 L-15,4 L-8,1 Z " fill="#DD3893" transform="translate(364,107)"/>
<path d="M0,0 L1,0 L1,137 L-318,137 L-334,134 L-344,129 L-352,123 L-359,114 L-364,100 L-365,93 L-365,48 L-94,47 Z " fill="#000000" transform="translate(734,670)"/>
<path d="M0,0 L49,0 L59,3 L67,7 L78,17 L83,25 L86,32 L88,45 L88,252 L-22,252 L-25,233 L-27,215 L-28,199 L-28,142 L-26,116 L-22,87 L-16,56 L-7,22 Z " fill="#000000" transform="translate(647,205)"/>
<path d="M0,0 L476,0 L486,2 L498,8 L507,16 L514,27 L517,35 L518,41 L518,706 L516,715 L510,727 L502,736 L497,740 L481,748 L479,747 L486,741 L493,730 L496,722 L497,716 L497,51 L495,42 L489,30 L482,22 L471,15 L463,12 L456,11 L-27,11 L-23,8 L-9,1 Z " fill="#49E237" transform="translate(284,147)"/>
<path d="M0,0 L476,0 L486,2 L498,8 L507,16 L514,27 L517,35 L518,41 L518,706 L516,715 L510,727 L502,736 L497,740 L481,748 L479,747 L486,741 L493,730 L496,722 L497,716 L497,51 L495,42 L489,30 L482,22 L471,15 L463,12 L456,11 L-27,11 L-23,8 L-9,1 Z " fill="#38D9DC" transform="translate(324,127)"/>
<path d="M0,0 L476,0 L486,2 L498,8 L507,16 L514,27 L517,35 L518,41 L518,706 L516,715 L510,727 L502,736 L491,743 L481,748 L479,747 L486,741 L493,730 L496,722 L497,716 L497,51 L495,42 L489,30 L482,22 L471,15 L463,12 L456,11 L-27,11 L-23,8 L-8,1 Z " fill="#EC803A" transform="translate(364,107)"/>
<path d="M0,0 L476,0 L486,2 L498,8 L507,16 L514,27 L517,35 L518,41 L518,706 L516,715 L510,727 L502,736 L491,743 L486,745 L483,744 L491,734 L496,722 L497,716 L497,51 L495,42 L489,30 L482,22 L471,15 L463,12 L456,11 L-25,11 L-21,7 L-8,1 Z " fill="#3C5DD2" transform="translate(384,97)"/>
<path d="M0,0 L476,0 L486,2 L498,8 L507,16 L514,27 L517,35 L518,41 L518,706 L516,715 L510,727 L502,736 L491,743 L486,745 L483,744 L491,734 L496,722 L497,716 L497,51 L495,42 L489,30 L482,22 L471,15 L463,12 L456,11 L-25,11 L-21,7 L-8,1 Z " fill="#E2373A" transform="translate(404,87)"/>
<path d="M0,0 L20,0 L20,9 L10,14 L100,15 L98,25 L94,41 L106,35 L200,35 L197,47 L190,69 L182,100 L176,132 L172,166 L171,182 L171,239 L173,265 L176,288 L176,292 L293,292 L293,386 L291,387 L333,388 L333,482 L315,491 L313,491 L313,398 L57,398 L50,353 L46,308 L45,280 L45,238 L46,209 L50,165 L58,114 L68,68 L80,25 L-12,25 L-8,22 L-2,19 L0,19 Z M86,45 L83,52 L73,85 L66,114 L61,140 L57,172 L55,203 L55,237 L57,269 L62,306 L68,337 L71,350 L77,388 L83,389 L86,396 L273,396 L273,302 L156,302 L154,283 L152,265 L151,249 L151,192 L153,166 L157,137 L163,106 L172,72 L180,47 L180,45 Z " fill="#48E238" transform="translate(369,205)"/>
<path d="M0,0 L122,0 L120,10 L114,29 L106,60 L100,92 L96,126 L95,142 L95,199 L97,225 L100,248 L100,252 L210,252 L210,358 L191,359 L179,365 L177,365 L177,272 L60,272 L57,253 L55,235 L54,219 L54,162 L56,136 L60,107 L66,76 L75,42 L84,15 L-8,15 L-3,10 Z " fill="#DD3893" transform="translate(525,205)"/>
<path d="M0,0 L119,0 L115,16 L112,23 L110,24 L200,25 L197,37 L190,59 L182,90 L176,122 L172,156 L171,172 L171,229 L173,255 L176,278 L176,282 L293,282 L293,375 L307,368 L346,368 L346,465 L327,475 L315,481 L313,481 L313,388 L269,388 L273,386 L273,292 L156,292 L153,273 L151,255 L150,239 L150,182 L152,156 L156,127 L162,96 L171,62 L180,35 L86,36 L73,42 L77,25 L80,15 L-12,15 L-8,12 L-2,9 L0,9 Z " fill="#F7C31E" transform="translate(389,205)"/>
<path d="M0,0 L37,0 L37,19 L27,24 L117,25 L115,35 L104,76 L94,125 L88,165 L84,209 L83,238 L83,280 L84,308 L88,353 L94,393 L94,398 L350,398 L350,492 L332,501 L330,501 L330,408 L74,408 L67,363 L63,318 L62,290 L62,248 L63,219 L67,175 L75,124 L85,78 L97,35 L3,36 L-3,38 L-3,13 L-1,2 Z " fill="#F9CD1A" transform="translate(332,205)"/>
<path d="M0,0 L40,0 L41,45 L44,59 L48,67 L54,75 L64,82 L74,86 L87,88 L406,89 L404,106 L402,109 L47,109 L31,106 L21,101 L13,95 L6,86 L1,72 L0,65 Z " fill="#DD3894" transform="translate(329,718)"/>
<path d="M0,0 L17,0 L14,12 L11,14 L101,15 L98,27 L91,49 L83,80 L77,112 L73,146 L72,162 L72,219 L74,245 L77,268 L77,272 L194,272 L194,365 L208,358 L227,358 L227,368 L188,369 L176,375 L174,375 L174,282 L57,282 L54,263 L52,245 L51,229 L51,172 L53,146 L57,117 L63,86 L72,52 L81,25 L-11,25 L-6,20 L-1,2 Z " fill="#38DADD" transform="translate(508,205)"/>
<path d="M0,0 L20,0 L20,9 L10,14 L100,15 L98,25 L93,42 L86,46 L75,81 L67,114 L62,140 L58,172 L56,203 L56,237 L58,269 L63,306 L69,337 L72,350 L77,383 L77,388 L83,388 L86,395 L273,395 L287,388 L333,388 L333,482 L315,491 L313,491 L313,398 L57,398 L50,353 L46,308 L45,280 L45,238 L46,209 L50,165 L58,114 L68,68 L80,25 L-12,25 L-8,22 L-2,19 L0,19 Z " fill="#37DADD" transform="translate(369,205)"/>
<path d="M0,0 L1,0 L5,25 L14,67 L20,88 L21,187 L24,201 L28,209 L34,217 L44,224 L54,228 L67,230 L436,231 L433,236 L429,240 L419,241 L47,241 L31,238 L21,233 L13,227 L6,218 L1,204 L0,197 Z " fill="#F9D018" transform="translate(289,606)"/>
<path d="M0,0 L122,0 L120,10 L114,29 L106,60 L100,92 L96,126 L95,142 L95,199 L97,225 L100,248 L100,252 L210,252 L210,358 L193,358 L197,356 L197,262 L80,262 L77,243 L75,225 L74,209 L74,152 L76,126 L80,97 L86,66 L95,32 L104,5 L10,6 L-3,12 Z " fill="#EB7F3A" transform="translate(525,205)"/>
<path d="M0,0 L2,3 L6,18 L7,19 L20,20 L21,85 L24,99 L28,107 L34,115 L44,122 L54,126 L67,128 L422,129 L419,137 L417,139 L47,139 L31,136 L21,131 L13,125 L6,116 L1,102 L0,95 Z " fill="#37DADD" transform="translate(309,698)"/>
<path d="M0,0 L17,0 L15,9 L7,38 L2,61 L-2,82 L-6,116 L-7,132 L-7,189 L-5,215 L-2,238 L-2,242 L88,242 L88,252 L-22,252 L-25,233 L-27,215 L-28,199 L-28,142 L-26,116 L-22,87 L-16,56 L-7,22 Z " fill="#3C5DD2" transform="translate(647,205)"/>
<path d="M0,0 L20,0 L21,45 L24,59 L28,67 L34,75 L44,82 L54,86 L67,88 L386,89 L385,99 L47,99 L31,96 L21,91 L13,85 L6,76 L1,62 L0,55 Z " fill="#EB813A" transform="translate(349,718)"/>
<path d="M0,0 L17,0 L13,16 L7,40 L1,72 L-3,106 L-4,122 L-4,179 L-2,205 L1,228 L1,232 L71,232 L71,242 L-19,242 L-22,223 L-24,205 L-25,189 L-25,132 L-23,106 L-19,77 L-13,46 L-4,12 Z " fill="#E2373A" transform="translate(664,205)"/>
<path d="M0,0 L20,0 L21,35 L24,49 L28,57 L34,65 L44,72 L54,76 L67,78 L366,79 L366,89 L47,89 L31,86 L21,81 L13,75 L6,66 L1,52 L0,45 Z " fill="#3C5DD2" transform="translate(369,718)"/>
<path d="M0,0 L20,0 L21,25 L24,39 L28,47 L34,55 L44,62 L54,66 L67,68 L346,69 L346,79 L47,79 L31,76 L21,71 L13,65 L6,56 L1,42 L0,35 Z " fill="#E2373A" transform="translate(389,718)"/>
<path d="M0,0 L46,0 L46,94 L28,103 L26,103 L26,10 L-18,10 L-14,7 Z " fill="#DD3894" transform="translate(676,583)"/>
<path d="M0,0 L9,0 L4,12 L2,23 L1,69 L-6,95 L-16,143 L-18,157 L-19,157 L-19,33 L-16,19 L-12,11 L-5,2 Z " fill="#FAD018" transform="translate(308,205)"/>
<path d="M0,0 L94,0 L92,10 L87,27 L68,37 L67,35 L74,10 L-18,10 L-14,7 Z " fill="#DD3894" transform="translate(395,210)"/>
<path d="M0,0 L119,0 L115,16 L112,23 L93,32 L97,15 L100,5 L6,6 L0,8 Z " fill="#EB7B3B" transform="translate(389,205)"/>
<path d="M0,0 L15,0 L13,13 L12,39 L0,45 L-2,45 L-6,61 L-8,65 L-8,23 L-5,9 L-1,1 Z " fill="#37DADD" transform="translate(317,205)"/>
<path d="M0,0 L18,0 L17,29 L-1,38 L-3,38 L-3,13 L-1,2 Z " fill="#DD3893" transform="translate(332,205)"/>
<path d="M0,0 L17,0 L14,12 L-5,22 L-6,20 L-1,2 Z " fill="#3D5DD2" transform="translate(508,205)"/>
<path d="M0,0 L19,0 L19,10 L-18,10 L-14,7 Z " fill="#3C5DD2" transform="translate(716,563)"/>
<path d="M0,0 L20,0 L20,9 L2,18 L0,18 Z " fill="#3C5DD2" transform="translate(369,205)"/>
<path d="M0,0 L2,4 L8,24 L11,36 L5,36 L0,5 Z " fill="#DD3894" transform="translate(441,557)"/>
</svg>
